<svg xmlns="http://www.w3.org/2000/svg" version="1.1" viewBox="0 0 1024 1280" x="0px" y="0px"><title>flash</title><path d="M375.467 967.111c-2.311 0-4.622-0.533-6.756-1.6-6.4-3.2-9.6-10.489-7.822-17.422l101.333-390.578h-132.089c-5.867 0-11.2-3.378-13.689-8.533-2.489-5.333-1.778-11.556 1.956-16l379.022-470.4c4.444-5.511 12.267-7.289 18.667-4.089s9.6 10.489 7.822 17.422l-101.333 390.578h132.089c5.867 0 11.2 3.378 13.689 8.533 2.489 5.333 1.778 11.556-1.956 16l-379.2 470.4c-2.844 3.733-7.289 5.689-11.733 5.689z" fill="#ffffff"/><text x="0" y="1039" fill="#ffffff" font-size="5px" font-weight="bold" font-family="'Helvetica Neue', Helvetica, Arial-Unicode, Arial, Sans-serif">Created by emil robinson</text><text x="0" y="1044" fill="#ffffff" font-size="5px" font-weight="bold" font-family="'Helvetica Neue', Helvetica, Arial-Unicode, Arial, Sans-serif">from the Noun Project</text></svg>